<svg width="72" height="68" viewBox="0 0 72 68" fill="none" xmlns="http://www.w3.org/2000/svg">
<path d="M5.78328 29.9924C5.42328 29.9924 5.12328 29.8649 4.88328 29.6099L0.383281 25.1099C0.128281 24.8699 0.000781357 24.5699 0.000781357 24.2099V5.75993C0.000781357 5.41493 0.128281 5.11493 0.383281 4.85993L4.88328 0.359931C5.12328 0.11993 5.42328 -6.9797e-05 5.78328 -6.9797e-05H19.0808C19.4558 -6.9797e-05 19.6433 0.18743 19.6433 0.56243V5.42243C19.6433 5.79743 19.4558 5.98493 19.0808 5.98493H8.25828C8.04828 5.98493 7.86828 6.05993 7.71828 6.20993C7.56828 6.35993 7.49328 6.53993 7.49328 6.74993V23.1974C7.49328 23.4074 7.56828 23.5874 7.71828 23.7374C7.86828 23.8874 8.04828 23.9624 8.25828 23.9624H13.1183V17.9549H10.2383C9.86328 17.9549 9.67578 17.7674 9.67578 17.3924V12.5549C9.67578 12.1799 9.86328 11.9924 10.2383 11.9924H19.4633C19.8383 11.9924 20.0258 12.1799 20.0258 12.5549V24.2099C20.0258 24.5699 19.8983 24.8699 19.6433 25.1099L15.1433 29.6099C14.9033 29.8649 14.6033 29.9924 14.2433 29.9924H5.78328ZM26.4745 29.9924C26.1295 29.9924 25.8295 29.8649 25.5745 29.6099L21.0745 25.1099C20.8195 24.8699 20.692 24.5699 20.692 24.2099V5.75993C20.692 5.41493 20.8195 5.11493 21.0745 4.85993L25.5745 0.359931C25.8295 0.11993 26.1295 -6.9797e-05 26.4745 -6.9797e-05H35.317C35.677 -6.9797e-05 35.977 0.11993 36.217 0.359931L40.717 4.85993C40.972 5.11493 41.0995 5.41493 41.0995 5.75993V24.2099C41.0995 24.5699 40.972 24.8699 40.717 25.1099L36.217 29.6099C35.977 29.8649 35.677 29.9924 35.317 29.9924H26.4745ZM29.1295 23.9849H32.662C33.292 23.9849 33.607 23.5649 33.607 22.7249V7.26743C33.607 6.41243 33.292 5.98493 32.662 5.98493H29.1295C28.5145 5.98493 28.207 6.41243 28.207 7.26743V22.7249C28.207 23.5649 28.5145 23.9849 29.1295 23.9849ZM5.06328 67.9924C4.68828 67.9924 4.50078 67.8049 4.50078 67.4299V43.9849H0.563281C0.188281 43.9849 0.000781357 43.7974 0.000781357 43.4224V38.5624C0.000781357 38.1874 0.188281 37.9999 0.563281 37.9999H15.9308C16.3058 37.9999 16.4933 38.1874 16.4933 38.5624V43.4224C16.4933 43.7974 16.3058 43.9849 15.9308 43.9849H11.9933V67.4299C11.9933 67.8049 11.8058 67.9924 11.4308 67.9924H5.06328ZM18.398 67.9924C18.023 67.9924 17.8355 67.8049 17.8355 67.4299V38.5624C17.8355 38.1874 18.023 37.9999 18.398 37.9999H34.0805C34.4555 37.9999 34.643 38.1874 34.643 38.5624V43.4224C34.643 43.7974 34.4555 43.9849 34.0805 43.9849H25.328V50.3749H33.3155C33.6905 50.3749 33.878 50.5624 33.878 50.9374V55.0549C33.878 55.4299 33.6905 55.6174 33.3155 55.6174H25.328V61.9849H34.0805C34.4555 61.9849 34.643 62.1724 34.643 62.5474V67.4299C34.643 67.8049 34.4555 67.9924 34.0805 67.9924H18.398ZM44.4829 67.9924C44.1379 67.9924 43.8379 67.8949 43.5829 67.6999L39.9154 64.3474L36.2029 59.5099C36.0379 59.2999 35.9329 59.1724 35.8879 59.1274C35.8429 59.0674 35.8204 58.9324 35.8204 58.7224V47.2474C35.8204 47.0374 35.8429 46.9024 35.8879 46.8424C35.9479 46.7824 36.0529 46.6549 36.2029 46.4599L39.6454 42.0049L43.5829 38.2924C43.7479 38.1574 43.8754 38.0749 43.9654 38.0449C44.0704 38.0149 44.2429 37.9999 44.4829 37.9999H50.0404C50.4154 37.9999 50.6029 38.1874 50.6029 38.5624V42.1624C50.6029 42.2824 50.5879 42.4099 50.5579 42.5449C50.5429 42.6649 50.4679 42.7699 50.3329 42.8599L46.1029 45.7624L43.3354 49.3174V56.6749L46.1479 60.2299L50.3329 63.1099C50.4529 63.1849 50.5279 63.2749 50.5579 63.3799C50.5879 63.4849 50.6029 63.5974 50.6029 63.7174V67.4299C50.6029 67.8049 50.4154 67.9924 50.0404 67.9924H44.4829ZM51.4748 67.9924C51.0998 67.9924 50.9123 67.8049 50.9123 67.4299V38.5624C50.9123 38.1874 51.0998 37.9999 51.4748 37.9999H57.8423C58.2173 37.9999 58.4048 38.1874 58.4048 38.5624V49.2499H63.9623V38.5624C63.9623 38.1874 64.1498 37.9999 64.5248 37.9999H70.8923C71.2673 37.9999 71.4548 38.1874 71.4548 38.5624V67.4299C71.4548 67.8049 71.2673 67.9924 70.8923 67.9924H64.5248C64.1498 67.9924 63.9623 67.8049 63.9623 67.4299V55.2349H58.4048V67.4299C58.4048 67.8049 58.2173 67.9924 57.8423 67.9924H51.4748Z" fill="black"/>
</svg>
