<svg width="43" height="38" viewBox="0 0 43 38" fill="none" xmlns="http://www.w3.org/2000/svg">
<path d="M8.4825 36C8.1225 36 7.8225 35.8725 7.5825 35.6175L3.0825 31.1175C2.8275 30.8775 2.7 30.5775 2.7 30.2175V11.7675C2.7 11.4225 2.8275 11.1225 3.0825 10.8675L7.5825 6.3675C7.8225 6.1275 8.1225 6.0075 8.4825 6.0075H21.78C22.155 6.0075 22.3425 6.195 22.3425 6.57V11.43C22.3425 11.805 22.155 11.9925 21.78 11.9925H10.9575C10.7475 11.9925 10.5675 12.0675 10.4175 12.2175C10.2675 12.3675 10.1925 12.5475 10.1925 12.7575V29.205C10.1925 29.415 10.2675 29.595 10.4175 29.745C10.5675 29.895 10.7475 29.97 10.9575 29.97H15.8175V23.9625H12.9375C12.5625 23.9625 12.375 23.775 12.375 23.4V18.5625C12.375 18.1875 12.5625 18 12.9375 18H22.1625C22.5375 18 22.725 18.1875 22.725 18.5625V30.2175C22.725 30.5775 22.5975 30.8775 22.3425 31.1175L17.8425 35.6175C17.6025 35.8725 17.3025 36 16.9425 36H8.4825ZM28.4537 36C28.0787 36 27.8912 35.8125 27.8912 35.4375V11.9925H23.9537C23.5787 11.9925 23.3912 11.805 23.3912 11.43V6.57C23.3912 6.195 23.5787 6.0075 23.9537 6.0075H39.3212C39.6962 6.0075 39.8837 6.195 39.8837 6.57V11.43C39.8837 11.805 39.6962 11.9925 39.3212 11.9925H35.3837V35.4375C35.3837 35.8125 35.1962 36 34.8212 36H28.4537Z" fill="url(#paint0_linear_327_384)"/>
<rect x="21" y="6" width="10" height="6" fill="url(#paint1_linear_327_384)"/>
<defs>
<linearGradient id="paint0_linear_327_384" x1="35.5" y1="1.5" x2="10.5" y2="29" gradientUnits="userSpaceOnUse">
<stop stop-color="#000DFF"/>
<stop offset="1" stop-color="#6D9FA4"/>
</linearGradient>
<linearGradient id="paint1_linear_327_384" x1="29.2558" y1="6.23684" x2="25.7112" y2="11.9796" gradientUnits="userSpaceOnUse">
<stop stop-color="#000DFF"/>
<stop offset="1" stop-color="#6D9FA4"/>
</linearGradient>
</defs>
</svg>
